<svg width="64" height="64" viewBox="0 0 64 64" fill="none" xmlns="http://www.w3.org/2000/svg">
  <!-- 可爱的记录本图标 -->
  <g>
    <!-- 记录本主体 -->
    <rect x="16" y="12" width="32" height="40" rx="4" fill="#FFB6C1" stroke="#FF69B4" stroke-width="2"/>
    
    <!-- 记录本封面装饰 -->
    <rect x="18" y="14" width="28" height="36" rx="2" fill="#FFF0F5"/>
    
    <!-- 可爱的小熊头像 -->
    <circle cx="32" cy="24" r="6" fill="#DEB887"/>
    <circle cx="29" cy="22" r="1.5" fill="#8B4513"/>
    <circle cx="35" cy="22" r="1.5" fill="#8B4513"/>
    <ellipse cx="32" cy="25" rx="1" ry="0.5" fill="#8B4513"/>
    <path d="M30 26 Q32 28 34 26" stroke="#8B4513" stroke-width="1" fill="none"/>
    
    <!-- 小熊耳朵 -->
    <circle cx="27" cy="19" r="2.5" fill="#DEB887"/>
    <circle cx="37" cy="19" r="2.5" fill="#DEB887"/>
    <circle cx="27" cy="19" r="1.5" fill="#F4A460"/>
    <circle cx="37" cy="19" r="1.5" fill="#F4A460"/>
    
    <!-- 记录线条 -->
    <line x1="22" y1="34" x2="42" y2="34" stroke="#FF69B4" stroke-width="1" opacity="0.6"/>
    <line x1="22" y1="38" x2="38" y2="38" stroke="#FF69B4" stroke-width="1" opacity="0.6"/>
    <line x1="22" y1="42" x2="40" y2="42" stroke="#FF69B4" stroke-width="1" opacity="0.6"/>
    <line x1="22" y1="46" x2="36" y2="46" stroke="#FF69B4" stroke-width="1" opacity="0.6"/>
    
    <!-- 可爱的小星星 -->
    <path d="M24 36 L24.5 37 L25.5 37 L24.8 37.7 L25 38.5 L24 38 L23 38.5 L23.2 37.7 L22.5 37 L23.5 37 Z" fill="#FFD700"/>
    <path d="M40 44 L40.5 45 L41.5 45 L40.8 45.7 L41 46.5 L40 46 L39 46.5 L39.2 45.7 L38.5 45 L39.5 45 Z" fill="#FFD700"/>
    
    <!-- 书签 -->
    <rect x="44" y="12" width="4" height="16" fill="#FF1493"/>
    <path d="M44 28 L46 26 L48 28 L48 12 L44 12 Z" fill="#FF1493"/>
    
    <!-- 装饰边框 -->
    <rect x="20" y="16" width="24" height="2" rx="1" fill="#FF69B4" opacity="0.3"/>
    <rect x="20" y="48" width="24" height="2" rx="1" fill="#FF69B4" opacity="0.3"/>
  </g>
</svg>
