<svg width="48" height="48" viewBox="0 0 48 48" fill="none" xmlns="http://www.w3.org/2000/svg">
  <!-- 红色热情主题图标 玫瑰花 -->
  <g>
    <!-- 花茎 -->
    <rect x="23" y="28" width="2" height="16" fill="#4CAF50"/>
    
    <!-- 叶子 -->
    <ellipse cx="20" cy="32" rx="3" ry="6" fill="#66BB6A" transform="rotate(-30 20 32)"/>
    <ellipse cx="28" cy="36" rx="3" ry="6" fill="#66BB6A" transform="rotate(30 28 36)"/>
    
    <!-- 玫瑰花瓣 (外层) -->
    <g>
      <ellipse cx="24" cy="20" rx="8" ry="6" fill="#F44336" transform="rotate(0 24 20)"/>
      <ellipse cx="24" cy="20" rx="8" ry="6" fill="#E57373" transform="rotate(45 24 20)" opacity="0.8"/>
      <ellipse cx="24" cy="20" rx="8" ry="6" fill="#EF5350" transform="rotate(90 24 20)" opacity="0.9"/>
      <ellipse cx="24" cy="20" rx="8" ry="6" fill="#F44336" transform="rotate(135 24 20)" opacity="0.7"/>
    </g>
    
    <!-- 玫瑰花瓣 (中层) -->
    <g>
      <ellipse cx="24" cy="20" rx="6" ry="4" fill="#D32F2F" transform="rotate(22.5 24 20)"/>
      <ellipse cx="24" cy="20" rx="6" ry="4" fill="#E57373" transform="rotate(67.5 24 20)" opacity="0.8"/>
      <ellipse cx="24" cy="20" rx="6" ry="4" fill="#EF5350" transform="rotate(112.5 24 20)" opacity="0.9"/>
      <ellipse cx="24" cy="20" rx="6" ry="4" fill="#D32F2F" transform="rotate(157.5 24 20)" opacity="0.7"/>
    </g>
    
    <!-- 玫瑰花瓣 (内层) -->
    <g>
      <ellipse cx="24" cy="20" rx="4" ry="3" fill="#B71C1C"/>
      <ellipse cx="24" cy="20" rx="3" ry="2" fill="#FFCDD2"/>
    </g>
    
    <!-- 花心 -->
    <circle cx="24" cy="20" r="1.5" fill="#FFD700"/>
    
    <!-- 小花蕾装饰 -->
    <g opacity="0.8">
      <!-- 左上花蕾 -->
      <ellipse cx="12" cy="12" rx="2" ry="3" fill="#F44336"/>
      <ellipse cx="12" cy="12" rx="1" ry="2" fill="#FFCDD2"/>
      <rect x="11.5" y="15" width="1" height="4" fill="#4CAF50"/>
      
      <!-- 右上花蕾 -->
      <ellipse cx="36" cy="12" rx="2" ry="3" fill="#F44336"/>
      <ellipse cx="36" cy="12" rx="1" ry="2" fill="#FFCDD2"/>
      <rect x="35.5" y="15" width="1" height="4" fill="#4CAF50"/>
    </g>
    
    <!-- 爱心装饰 -->
    <g opacity="0.6">
      <path d="M8 8 C6 6, 2 6, 2 10 C2 12, 8 16, 8 16 C8 16, 14 12, 14 10 C14 6, 10 6, 8 8 Z" fill="#FF69B4"/>
      <path d="M40 8 C38 6, 34 6, 34 10 C34 12, 40 16, 40 16 C40 16, 46 12, 46 10 C46 6, 42 6, 40 8 Z" fill="#FF69B4"/>
    </g>
    
    <!-- 花粉效果 -->
    <g opacity="0.5">
      <circle cx="18" cy="14" r="1" fill="#FFD700"/>
      <circle cx="30" cy="14" r="1" fill="#FFD700"/>
      <circle cx="16" cy="26" r="0.5" fill="#FFD700"/>
      <circle cx="32" cy="26" r="0.5" fill="#FFD700"/>
    </g>
  </g>
</svg>
