<svg width="48" height="48" viewBox="0 0 48 48" fill="none" xmlns="http://www.w3.org/2000/svg">
  <!-- 橙色活力主题图标 太阳 -->
  <g>
    <!-- 太阳主体 -->
    <circle cx="24" cy="24" r="12" fill="#FF9800"/>
    <circle cx="24" cy="24" r="10" fill="#FFB74D"/>
    <circle cx="24" cy="24" r="8" fill="#FFCC80"/>
    
    <!-- 太阳光芒 -->
    <g stroke="#FF9800" stroke-width="3" stroke-linecap="round">
      <!-- 主要光芒 -->
      <line x1="24" y1="4" x2="24" y2="8"/>
      <line x1="24" y1="40" x2="24" y2="44"/>
      <line x1="4" y1="24" x2="8" y2="24"/>
      <line x1="40" y1="24" x2="44" y2="24"/>
      
      <!-- 对角光芒 -->
      <line x1="10.3" y1="10.3" x2="12.7" y2="12.7"/>
      <line x1="35.3" y1="35.3" x2="37.7" y2="37.7"/>
      <line x1="37.7" y1="10.3" x2="35.3" y2="12.7"/>
      <line x1="12.7" y1="35.3" x2="10.3" y2="37.7"/>
    </g>
    
    <!-- 次要光芒 -->
    <g stroke="#FFB74D" stroke-width="2" stroke-linecap="round">
      <line x1="24" y1="2" x2="24" y2="4"/>
      <line x1="24" y1="44" x2="24" y2="46"/>
      <line x1="2" y1="24" x2="4" y2="24"/>
      <line x1="44" y1="24" x2="46" y2="24"/>
      
      <line x1="8.5" y1="8.5" x2="9.9" y2="9.9"/>
      <line x1="38.1" y1="38.1" x2="39.5" y2="39.5"/>
      <line x1="39.5" y1="8.5" x2="38.1" y2="9.9"/>
      <line x1="9.9" y1="38.1" x2="8.5" y2="39.5"/>
    </g>
    
    <!-- 太阳表情 -->
    <!-- 眼睛 -->
    <circle cx="20" cy="20" r="2" fill="#F57C00"/>
    <circle cx="28" cy="20" r="2" fill="#F57C00"/>
    <circle cx="20" cy="19" r="1" fill="#FFE0B2"/>
    <circle cx="28" cy="19" r="1" fill="#FFE0B2"/>
    
    <!-- 嘴巴 -->
    <path d="M18 28 Q24 32 30 28" stroke="#F57C00" stroke-width="2" fill="none"/>
    
    <!-- 脸颊 -->
    <circle cx="14" cy="26" r="2" fill="#FFAB91" opacity="0.6"/>
    <circle cx="34" cy="26" r="2" fill="#FFAB91" opacity="0.6"/>
    
    <!-- 装饰星星 -->
    <g opacity="0.8">
      <path d="M6 6 L7 8 L9 8 L7.5 9.5 L8 12 L6 10.5 L4 12 L4.5 9.5 L3 8 L5 8 Z" fill="#FFD700"/>
      <path d="M42 6 L43 8 L45 8 L43.5 9.5 L44 12 L42 10.5 L40 12 L40.5 9.5 L39 8 L41 8 Z" fill="#FFD700"/>
      <path d="M6 42 L7 44 L9 44 L7.5 45.5 L8 48 L6 46.5 L4 48 L4.5 45.5 L3 44 L5 44 Z" fill="#FFD700"/>
      <path d="M42 42 L43 44 L45 44 L43.5 45.5 L44 48 L42 46.5 L40 48 L40.5 45.5 L39 44 L41 44 Z" fill="#FFD700"/>
    </g>
  </g>
</svg>
