<svg width="48" height="48" viewBox="0 0 48 48" fill="none" xmlns="http://www.w3.org/2000/svg">
  <!-- 绿色自然主题图标 小树 -->
  <g>
    <!-- 树干 -->
    <rect x="22" y="32" width="4" height="12" rx="2" fill="#8D6E63"/>
    
    <!-- 树叶层1 (底层) -->
    <ellipse cx="24" cy="28" rx="12" ry="8" fill="#4CAF50"/>
    
    <!-- 树叶层2 (中层) -->
    <ellipse cx="24" cy="24" rx="10" ry="6" fill="#66BB6A"/>
    
    <!-- 树叶层3 (顶层) -->
    <ellipse cx="24" cy="20" rx="8" ry="5" fill="#81C784"/>
    
    <!-- 树叶细节 -->
    <g opacity="0.8">
      <ellipse cx="18" cy="26" rx="3" ry="2" fill="#388E3C"/>
      <ellipse cx="30" cy="26" rx="3" ry="2" fill="#388E3C"/>
      <ellipse cx="20" cy="22" rx="2" ry="1.5" fill="#388E3C"/>
      <ellipse cx="28" cy="22" rx="2" ry="1.5" fill="#388E3C"/>
    </g>
    
    <!-- 小花装饰 -->
    <g>
      <!-- 左侧小花 -->
      <circle cx="14" cy="30" r="2" fill="#FFB6C1"/>
      <circle cx="12" cy="28" r="1" fill="#FF69B4"/>
      <circle cx="16" cy="28" r="1" fill="#FF69B4"/>
      <circle cx="12" cy="32" r="1" fill="#FF69B4"/>
      <circle cx="16" cy="32" r="1" fill="#FF69B4"/>
      <circle cx="14" cy="30" r="0.5" fill="#FFD700"/>
      
      <!-- 右侧小花 -->
      <circle cx="34" cy="30" r="2" fill="#FFB6C1"/>
      <circle cx="32" cy="28" r="1" fill="#FF69B4"/>
      <circle cx="36" cy="28" r="1" fill="#FF69B4"/>
      <circle cx="32" cy="32" r="1" fill="#FF69B4"/>
      <circle cx="36" cy="32" r="1" fill="#FF69B4"/>
      <circle cx="34" cy="30" r="0.5" fill="#FFD700"/>
    </g>
    
    <!-- 小鸟装饰 -->
    <g opacity="0.9">
      <ellipse cx="36" cy="16" rx="3" ry="2" fill="#FFD700"/>
      <circle cx="38" cy="15" r="0.5" fill="#333"/>
      <path d="M39 16 L41 15" stroke="#FF9800" stroke-width="1"/>
      <path d="M34 18 Q36 20 38 18" stroke="#4CAF50" stroke-width="1" fill="none"/>
    </g>
    
    <!-- 草地 -->
    <g opacity="0.6">
      <path d="M8 40 Q12 36 16 40 Q20 36 24 40 Q28 36 32 40 Q36 36 40 40" stroke="#4CAF50" stroke-width="2" fill="none"/>
      <path d="M6 42 Q10 38 14 42 Q18 38 22 42 Q26 38 30 42 Q34 38 38 42 Q42 38 46 42" stroke="#66BB6A" stroke-width="2" fill="none"/>
    </g>
  </g>
</svg>
