<svg width="48" height="48" viewBox="0 0 48 48" fill="none" xmlns="http://www.w3.org/2000/svg">
  <!-- 紫色梦幻主题图标 独角兽 -->
  <g>
    <!-- 独角兽头部 -->
    <ellipse cx="24" cy="28" rx="12" ry="10" fill="#E1BEE7"/>
    <ellipse cx="24" cy="28" rx="10" ry="8" fill="#F3E5F5"/>
    
    <!-- 独角兽角 -->
    <path d="M24 12 L26 20 L22 20 Z" fill="#FFD700"/>
    <g stroke="#9C27B0" stroke-width="1" fill="none">
      <line x1="22.5" y1="18" x2="25.5" y2="18"/>
      <line x1="23" y1="16" x2="25" y2="16"/>
      <line x1="23.5" y1="14" x2="24.5" y2="14"/>
    </g>
    
    <!-- 眼睛 -->
    <circle cx="20" cy="26" r="2" fill="#9C27B0"/>
    <circle cx="28" cy="26" r="2" fill="#9C27B0"/>
    <circle cx="20" cy="25" r="1" fill="white"/>
    <circle cx="28" cy="25" r="1" fill="white"/>
    
    <!-- 鼻子 -->
    <ellipse cx="24" cy="30" rx="1" ry="0.5" fill="#9C27B0"/>
    
    <!-- 嘴巴 -->
    <path d="M22 32 Q24 34 26 32" stroke="#9C27B0" stroke-width="1" fill="none"/>
    
    <!-- 耳朵 -->
    <ellipse cx="18" cy="22" rx="3" ry="5" fill="#E1BEE7" transform="rotate(-30 18 22)"/>
    <ellipse cx="30" cy="22" rx="3" ry="5" fill="#E1BEE7" transform="rotate(30 30 22)"/>
    
    <!-- 鬃毛 -->
    <path d="M12 20 Q16 16 20 20 Q24 12 28 20 Q32 16 36 20" stroke="#9C27B0" stroke-width="2" fill="none"/>
    
    <!-- 星星装饰 -->
    <g opacity="0.8">
      <path d="M10 10 L11 12 L13 12 L11.5 13.5 L12 16 L10 14.5 L8 16 L8.5 13.5 L7 12 L9 12 Z" fill="#9C27B0"/>
      <path d="M38 10 L39 12 L41 12 L39.5 13.5 L40 16 L38 14.5 L36 16 L36.5 13.5 L35 12 L37 12 Z" fill="#9C27B0"/>
      <path d="M6 30 L7 32 L9 32 L7.5 33.5 L8 36 L6 34.5 L4 36 L4.5 33.5 L3 32 L5 32 Z" fill="#7B1FA2"/>
      <path d="M42 30 L43 32 L45 32 L43.5 33.5 L44 36 L42 34.5 L40 36 L40.5 33.5 L39 32 L41 32 Z" fill="#7B1FA2"/>
    </g>
  </g>
</svg>
